<svg width="249" height="51" viewBox="0 0 249 51" fill="none" xmlns="http://www.w3.org/2000/svg">
<path d="M248.75 40.3001C248.75 42.3234 248.15 44.3012 247.026 45.9836C245.902 47.6659 244.304 48.9771 242.435 49.7513C240.566 50.5256 238.509 50.7282 236.524 50.3335C234.54 49.9388 232.717 48.9645 231.286 47.5338C229.856 46.1031 228.881 44.2803 228.487 42.2958C228.092 40.3114 228.294 38.2545 229.069 36.3852C229.843 34.5159 231.154 32.9182 232.836 31.7941C234.519 30.67 236.497 30.0701 238.52 30.0701C241.233 30.0701 243.835 31.1479 245.754 33.0664C247.672 34.9849 248.75 37.5869 248.75 40.3001Z" fill="#FFD200"/>
<path d="M22 24.83H25.8C30.12 24.83 32.74 22.16 33.21 18.83C33.61 15.96 31.61 12.83 27.54 12.83H23.89L22 24.83ZM214.27 17.9L222.93 1.66H242.84L212.84 49.22H192.49L202.12 35.65L191.12 2.64999L183.62 49.2H167.7L157.92 27.2L154.38 49.2H138.45L146.11 1.63999H162.46L171.94 22.92L175.37 1.63999H210.19L214.27 17.9ZM139.82 1.66L132.16 49.22H116.18L106.4 27.22L102.86 49.22H86.93L94.59 1.66H110.94L120.41 22.94L123.84 1.66H139.82ZM32.12 0.939995C43.12 0.939995 50.59 6.93999 50.66 16.5L53 1.64999H89.07L87.13 13.65H68.13L67.18 19.35H84.41L82.49 31.24H65.18L64.18 37.15H83.58L81.64 49.15H45.35L49.5 23.4C46.71 31.74 39.1 36.65 29.14 36.65H20L18 49.15H0.719971L8.49997 0.869995L32.12 0.939995Z" fill="white"/>
</svg>
