<svg width="133" height="27" viewBox="0 0 133 27" fill="none" xmlns="http://www.w3.org/2000/svg">
<path d="M37.1953 23.1428V6.23267H40.5586V12.8186H40.6289C41.2969 11.2366 42.668 10.3459 44.5781 10.3459C47.3672 10.3459 48.9609 12.1506 48.9609 15.0569V23.1428H45.5391V15.7834C45.5391 14.1663 44.7422 13.1819 43.1836 13.1819C41.5664 13.1819 40.6172 14.3186 40.6172 15.9709V23.1428H37.1953ZM56.2891 12.842C54.7891 12.842 53.7109 13.9788 53.5938 15.5491H58.9258C58.8555 13.9436 57.8125 12.842 56.2891 12.842ZM58.9727 19.2991H62.1133C61.7383 21.76 59.4883 23.4124 56.3828 23.4124C52.5156 23.4124 50.1953 20.9397 50.1953 16.9202C50.1953 12.9124 52.5391 10.3108 56.2539 10.3108C59.9102 10.3108 62.2188 12.7834 62.2188 16.6038V17.6467H53.5586V17.8577C53.5586 19.6506 54.6953 20.8811 56.4414 20.8811C57.6953 20.8811 58.6562 20.26 58.9727 19.2991ZM68.4688 18.7834H68.3984L66.043 23.1428H62.4453L66.3828 16.885L62.4688 10.5803H66.3242L68.5859 14.8225H68.6562L70.8828 10.5803H74.6094L70.6836 16.7913L74.5742 23.1428H70.8594L68.4688 18.7834ZM86.707 20.2131V23.1428H75.7734V6.23267H79.3125V20.2131H86.707ZM92.8633 20.8694C94.3516 20.8694 95.582 19.8967 95.582 18.5374V17.6233L92.9336 17.7874C91.6562 17.8811 90.9297 18.4553 90.9297 19.3459C90.9297 20.2834 91.7031 20.8694 92.8633 20.8694ZM91.7383 23.342C89.3477 23.342 87.5312 21.7952 87.5312 19.5334C87.5312 17.2483 89.2891 15.9241 92.418 15.7366L95.582 15.5491V14.717C95.582 13.5452 94.7617 12.8655 93.4727 12.8655C92.1953 12.8655 91.3867 13.4983 91.2227 14.4241H88.0938C88.2227 11.9866 90.2969 10.3108 93.625 10.3108C96.8477 10.3108 98.9453 11.9749 98.9453 14.5061V23.1428H95.6406V21.2209H95.5703C94.8672 22.5569 93.3086 23.342 91.7383 23.342ZM108.125 23.342C106.285 23.342 104.879 22.4514 104.188 20.9866H104.117V23.1428H100.742V6.23267H104.164V12.76H104.234C104.926 11.2717 106.32 10.3811 108.113 10.3811C111.277 10.3811 113.223 12.8069 113.223 16.8616C113.223 20.9045 111.289 23.342 108.125 23.342ZM106.941 13.1233C105.289 13.1233 104.152 14.6116 104.152 16.8616C104.152 19.135 105.277 20.5881 106.941 20.5881C108.652 20.5881 109.719 19.1584 109.719 16.8616C109.719 14.5764 108.641 13.1233 106.941 13.1233ZM114.293 14.2717C114.293 11.8811 116.367 10.3108 119.59 10.3108C122.742 10.3108 124.793 11.9045 124.84 14.342H121.688C121.617 13.3342 120.809 12.7131 119.543 12.7131C118.359 12.7131 117.586 13.2522 117.586 14.0608C117.586 14.6819 118.125 15.1038 119.227 15.3616L121.629 15.8772C124.148 16.4397 125.168 17.4358 125.168 19.3108C125.168 21.7834 122.895 23.4124 119.578 23.4124C116.227 23.4124 114.164 21.7952 113.977 19.3459H117.316C117.48 20.4006 118.312 21.01 119.672 21.01C120.973 21.01 121.758 20.4944 121.758 19.6741C121.758 19.0413 121.336 18.6897 120.211 18.4202L117.891 17.9045C115.512 17.3655 114.293 16.1233 114.293 14.2717Z" fill="#595959"/>
<path fill-rule="evenodd" clip-rule="evenodd" d="M9.8893 0H16.8438V7.4417L23.3827 3.6665L26.86 9.68931L20.4234 13.4055L26.9377 17.1665L23.4604 23.1893L16.8438 19.3692V27H9.8893V19.4873L3.47727 23.1893L0 17.1665L6.5143 13.4055L0.077723 9.68931L3.555 3.6665L9.8893 7.32361V0Z" fill="#595959"/>
</svg>
