<svg width="392" height="86" viewBox="0 0 392 86" fill="none" xmlns="http://www.w3.org/2000/svg">
<path d="M122.094 66.7812C108.688 66.7812 100.344 57.8125 100.344 43.4688V43.4062C100.344 29.0625 108.75 20.125 122.094 20.125C135.469 20.125 143.844 29.0938 143.844 43.4062V43.4688C143.844 57.8125 135.5 66.7812 122.094 66.7812ZM122.094 58.7812C129.594 58.7812 134.219 52.8125 134.219 43.4688V43.4062C134.219 34 129.5 28.125 122.094 28.125C114.719 28.125 109.969 33.9688 109.969 43.4062V43.4688C109.969 52.9062 114.688 58.7812 122.094 58.7812ZM149.156 76.9375V32.5H158.281V38.3438H158.5C160.312 34.2812 163.969 31.8125 168.719 31.8125C177.219 31.8125 182.406 38.3125 182.406 49.2188V49.25C182.406 60.125 177.219 66.6875 168.844 66.6875C164.062 66.6875 160.281 64.25 158.469 60.2812H158.281V76.9375H149.156ZM165.719 59.125C170.25 59.125 173.125 55.3438 173.125 49.25V49.2188C173.125 43.0938 170.25 39.375 165.719 39.375C161.281 39.375 158.25 43.1875 158.25 49.25V49.2812C158.25 55.3125 161.281 59.125 165.719 59.125ZM202.406 66.6875C192.156 66.6875 185.938 60.0312 185.938 49.3125V49.2812C185.938 38.625 192.219 31.8125 202.031 31.8125C211.844 31.8125 218 38.4688 218 48.5938V51.4062H194.938C195.031 56.75 197.938 59.875 202.594 59.875C206.344 59.875 208.625 57.8125 209.281 55.9375L209.344 55.75H217.719L217.625 56.0938C216.594 61.0312 211.969 66.6875 202.406 66.6875ZM202.188 38.625C198.438 38.625 195.625 41.125 195.031 45.6562H209.25C208.688 41.0312 205.969 38.625 202.188 38.625ZM222.719 66V32.5H231.844V38H232.031C233.75 34.1562 237.188 31.8125 242.25 31.8125C249.625 31.8125 253.812 36.5312 253.812 44.375V66H244.688V46.25C244.688 41.875 242.625 39.375 238.531 39.375C234.438 39.375 231.844 42.375 231.844 46.75V66H222.719ZM260.781 66V20.9062H267.781V59.9688H288.781V66H260.781ZM303.625 66.5938C297.062 66.5938 292.656 62.5625 292.656 56.6562V56.5938C292.656 50.875 297.094 47.375 304.875 46.9062L313.812 46.375V43.9062C313.812 40.2812 311.469 38.0938 307.281 38.0938C303.375 38.0938 300.969 39.9375 300.406 42.5625L300.344 42.8438H293.969L294 42.5C294.469 36.8438 299.375 32.5 307.469 32.5C315.5 32.5 320.594 36.75 320.594 43.3438V66H313.812V60.8125H313.688C311.781 64.3438 307.969 66.5938 303.625 66.5938ZM299.469 56.5C299.469 59.375 301.844 61.1875 305.469 61.1875C310.219 61.1875 313.812 57.9688 313.812 53.6875V51.125L305.781 51.625C301.719 51.875 299.469 53.6562 299.469 56.4375V56.5ZM344.625 66.6562C339.906 66.6562 336.25 64.2812 334.312 60.4375H334.156V66H327.406V20.9062H334.156V38.7188H334.312C336.281 34.8438 340.031 32.5 344.688 32.5C352.938 32.5 358.375 39.0625 358.375 49.5312V49.5625C358.375 60.0312 352.969 66.6562 344.625 66.6562ZM342.844 60.8438C348.156 60.8438 351.469 56.5625 351.469 49.5625V49.5312C351.469 42.5938 348.156 38.2812 342.844 38.2812C337.75 38.2812 334.125 42.7188 334.125 49.5312V49.5625C334.125 56.4062 337.719 60.8438 342.844 60.8438ZM375.906 66.6562C367.688 66.6562 362.875 62.5938 362.188 56.5938L362.156 56.3125H368.844L368.906 56.625C369.531 59.6562 371.781 61.4375 375.938 61.4375C380 61.4375 382.438 59.75 382.438 57.0938V57.0625C382.438 54.9375 381.25 53.7188 377.719 52.875L372.344 51.6562C366.094 50.2188 363 47.2188 363 42.4375V42.4062C363 36.5312 368.125 32.5 375.688 32.5C383.469 32.5 388.156 36.8438 388.5 42.4375L388.531 42.8125H382.188L382.156 42.5938C381.75 39.7188 379.5 37.7188 375.688 37.7188C372.062 37.7188 369.781 39.4375 369.781 42.0625V42.0938C369.781 44.125 371.125 45.5 374.656 46.3438L380 47.5625C386.719 49.125 389.281 51.7812 389.281 56.5V56.5312C389.281 62.5312 383.656 66.6562 375.906 66.6562Z" fill="#3C3C3C"/>
<path d="M43 0C43.9556 13.3141 53.8933 40.5538 86 43C72.9407 43.5733 46.0578 52.976 43 86C39.9422 52.976 13.0593 43.5733 0 43C32.1067 40.5538 42.0444 13.3141 43 0ZM42.8359 25.9912C42.4579 31.2577 38.527 42.0324 25.8271 43C30.9928 43.2268 41.6263 46.9461 42.8359 60.0088C44.0455 46.9464 54.679 43.2269 59.8447 43C47.1451 42.0322 43.2139 31.2577 42.8359 25.9912Z" fill="#3C3C3C"/>
</svg>
