<svg width="24" height="24" viewBox="0 0 24 24" fill="none" xmlns="http://www.w3.org/2000/svg">
<path fill-rule="evenodd" clip-rule="evenodd" d="M15.7071 8.29289C16.0976 8.68342 16.0976 9.31658 15.7071 9.70711L9.70711 15.7071C9.31658 16.0976 8.68342 16.0976 8.29289 15.7071C7.90237 15.3166 7.90237 14.6834 8.29289 14.2929L14.2929 8.29289C14.6834 7.90237 15.3166 7.90237 15.7071 8.29289Z" fill="black"/>
<path d="M16 14.5C16 15.3284 15.3284 16 14.5 16C13.6716 16 13 15.3284 13 14.5C13 13.6716 13.6716 13 14.5 13C15.3284 13 16 13.6716 16 14.5Z" fill="black"/>
<path d="M11 9.5C11 10.3284 10.3284 11 9.5 11C8.67157 11 8 10.3284 8 9.5C8 8.67157 8.67157 8 9.5 8C10.3284 8 11 8.67157 11 9.5Z" fill="black"/>
<path fill-rule="evenodd" clip-rule="evenodd" d="M9.33478 3.0404C10.8527 1.68404 13.1472 1.68404 14.6652 3.0404L14.9069 3.25635C15.2447 3.55818 15.6749 3.7364 16.1272 3.76182L16.4508 3.78002C18.4832 3.89429 20.1057 5.51674 20.2199 7.54918L20.2381 7.87277C20.2636 8.32506 20.4418 8.75531 20.7436 9.0931L20.9596 9.33478C22.3159 10.8527 22.3159 13.1472 20.9596 14.6652L20.7436 14.9069C20.4418 15.2447 20.2636 15.6749 20.2381 16.1272L20.2199 16.4508C20.1057 18.4832 18.4832 20.1057 16.4508 20.2199L16.1272 20.2381C15.6749 20.2636 15.2447 20.4418 14.9069 20.7436L14.6652 20.9596C13.1472 22.3159 10.8527 22.3159 9.33478 20.9596L9.0931 20.7436C8.75531 20.4418 8.32506 20.2636 7.87277 20.2381L7.54918 20.2199C5.51674 20.1057 3.89429 18.4832 3.78002 16.4508L3.76182 16.1272C3.7364 15.6749 3.55818 15.2447 3.25635 14.9069L3.0404 14.6652C1.68404 13.1472 1.68404 10.8527 3.04039 9.33478L3.25635 9.0931C3.55818 8.75531 3.7364 8.32506 3.76182 7.87277L3.78002 7.54918C3.89429 5.51674 5.51674 3.89429 7.54918 3.78002L7.87277 3.76182C8.32506 3.7364 8.75531 3.55818 9.0931 3.25635L9.33478 3.0404ZM13.3326 4.53176C12.5736 3.85359 11.4264 3.85359 10.6674 4.53176L10.4257 4.74772C9.75011 5.35138 8.88961 5.70781 7.98504 5.75867L7.66144 5.77686C6.64523 5.834 5.834 6.64523 5.77686 7.66144L5.75867 7.98504C5.70781 8.88961 5.35138 9.75011 4.74772 10.4257L4.53176 10.6674C3.85359 11.4264 3.85359 12.5736 4.53176 13.3326L4.74772 13.5743C5.35138 14.2498 5.70781 15.1104 5.75867 16.0149L5.77686 16.3385C5.834 17.3547 6.64523 18.166 7.66144 18.2231L7.98504 18.2413C8.88961 18.2922 9.75011 18.6486 10.4257 19.2522L10.6674 19.4682C11.4264 20.1464 12.5736 20.1464 13.3326 19.4682L13.5743 19.2522C14.2499 18.6486 15.1104 18.2922 16.0149 18.2413L16.3385 18.2231C17.3547 18.166 18.166 17.3547 18.2231 16.3385L18.2413 16.0149C18.2922 15.1104 18.6486 14.2499 19.2523 13.5743L19.4682 13.3326C20.1464 12.5736 20.1464 11.4264 19.4682 10.6674L19.2522 10.4257C18.6486 9.75011 18.2922 8.8896 18.2413 7.98504L18.2231 7.66144C18.166 6.64523 17.3547 5.834 16.3385 5.77686L16.0149 5.75867C15.1104 5.70781 14.2498 5.35138 13.5743 4.74772L13.3326 4.53176Z" fill="black"/>
</svg>
