<svg width="276" height="154" viewBox="0 0 276 154" fill="none" xmlns="http://www.w3.org/2000/svg">
<path fill-rule="evenodd" clip-rule="evenodd" d="M124.698 27.158C136.688 40.3093 144 57.8008 144 77C144 96.1992 136.688 113.691 124.698 126.842C130.694 142.713 146.029 154 164 154H234C257.196 154 276 135.196 276 112V42C276 18.804 257.196 0 234 0H164C146.029 0 130.694 11.2866 124.698 27.158Z" fill="black"/>
<circle cx="69.5" cy="76.5" r="69.5" fill="#E10915"/>
<path fill-rule="evenodd" clip-rule="evenodd" d="M199 27C185.193 27 174 38.1929 174 52C174 65.8071 185.193 77 199 77C212.807 77 224 65.8071 224 52C224 38.1929 212.807 27 199 27Z" fill="white"/>
<path fill-rule="evenodd" clip-rule="evenodd" d="M184 82C175.686 82 167.691 85.7926 163.006 91.5022C160.628 94.4 158.956 97.9856 158.811 101.96C158.662 106.018 160.127 109.979 163.148 113.435C170.511 121.858 182.266 127 199 127C215.734 127 227.489 121.858 234.852 113.435C237.873 109.979 239.338 106.018 239.19 101.96C239.044 97.9855 237.372 94.4 234.994 91.5022C230.309 85.7926 222.314 82 214 82H184Z" fill="white"/>
<path fill-rule="evenodd" clip-rule="evenodd" d="M57.935 45.5005C55.776 45.5005 53.3345 45.728 51.0024 46.5229C36.9424 51.1136 32.4221 66.1291 36.3958 78.505L36.4125 78.557L36.4308 78.6084C38.6203 84.7611 42.148 90.3445 46.7369 94.9372L46.7633 94.9636L46.7903 94.9895C53.3325 101.263 60.454 106.734 68.1649 111.48L69.9771 112.596L71.8015 111.501C79.5292 106.86 86.7876 101.239 93.2513 95.016L93.2715 94.9965L93.2915 94.9767C97.92 90.3753 101.448 84.7506 103.605 78.5921L103.623 78.5406L103.64 78.4886C107.538 66.1397 103.04 51.1062 89.0775 46.5832C86.7916 45.8228 84.4327 45.5005 82.1268 45.5005C76.9399 45.5005 73.1005 47.6723 70.0015 49.8859C66.9268 47.6891 63.0616 45.5005 57.935 45.5005Z" fill="white"/>
</svg>
