<svg width="24" height="24" viewBox="0 0 24 24" fill="none" xmlns="http://www.w3.org/2000/svg">
<path fill-rule="evenodd" clip-rule="evenodd" d="M12 10C10.8954 10 10 10.8954 10 12C10 13.1046 10.8954 14 12 14C13.1046 14 14 13.1046 14 12C14 10.8954 13.1046 10 12 10ZM8 12C8 9.79086 9.79086 8 12 8C14.2091 8 16 9.79086 16 12C16 14.2091 14.2091 16 12 16C9.79086 16 8 14.2091 8 12Z" fill="black"/>
<path fill-rule="evenodd" clip-rule="evenodd" d="M8.72964 4.54104C8.72964 3.13766 9.8673 2 11.2707 2H12.7293C14.1327 2 15.2704 3.13766 15.2704 4.54104C15.2704 4.74442 15.4106 5.01577 15.7458 5.19782C15.849 5.25384 15.9507 5.31209 16.051 5.37252C16.3853 5.57406 16.6991 5.56113 16.8834 5.45569C18.1072 4.75547 19.6667 5.17332 20.3764 6.39162L21.0809 7.60076C21.792 8.8214 21.3723 10.3877 20.1462 11.0892C19.9684 11.1909 19.8012 11.4496 19.8094 11.8346C19.8105 11.8896 19.8111 11.9448 19.8111 12C19.8111 12.0552 19.8105 12.1104 19.8094 12.1654C19.8012 12.5504 19.9684 12.8091 20.1461 12.9108C21.3723 13.6123 21.7919 15.1786 21.0808 16.3992L20.3764 17.6084C19.6666 18.8267 18.1071 19.2445 16.8834 18.5443C16.6991 18.4389 16.3853 18.4259 16.0509 18.6275C15.9507 18.6879 15.849 18.7462 15.7458 18.8022C15.4106 18.9842 15.2704 19.2556 15.2704 19.459C15.2704 20.8623 14.1327 22 12.7293 22H11.2707C9.8673 22 8.72964 20.8623 8.72964 19.459C8.72964 19.2556 8.58939 18.9842 8.25418 18.8022C8.15103 18.7462 8.0493 18.6879 7.94906 18.6275C7.61475 18.4259 7.30093 18.4389 7.11667 18.5443C5.89287 19.2445 4.33339 18.8267 3.62364 17.6084L2.9192 16.3992C2.20809 15.1786 2.62775 13.6123 3.85389 12.9108C4.03165 12.8091 4.19879 12.5504 4.19065 12.1654C4.18948 12.1104 4.1889 12.0553 4.1889 12C4.1889 11.9448 4.18948 11.8896 4.19065 11.8346C4.19879 11.4497 4.03164 11.191 3.85387 11.0892C2.62772 10.3877 2.20805 8.82141 2.91917 7.60077L3.62359 6.39163C4.33334 5.17333 5.89284 4.75548 7.11664 5.4557C7.3009 5.56113 7.61474 5.57407 7.94905 5.37253C8.0493 5.3121 8.15103 5.25384 8.25418 5.19782C8.58939 5.01577 8.72964 4.74442 8.72964 4.54104ZM11.2707 4C10.9719 4 10.7296 4.24223 10.7296 4.54104C10.7296 5.64708 10.0242 6.51246 9.20869 6.95535C9.13194 6.99703 9.05623 7.04039 8.98161 7.08537C8.18614 7.5649 7.08414 7.74134 6.12339 7.19163C5.85303 7.03694 5.50851 7.12925 5.35172 7.39839L4.6473 8.60754C4.49527 8.86848 4.58499 9.20332 4.84712 9.3533C5.80943 9.90391 6.20983 10.9487 6.1902 11.8769C6.18934 11.9178 6.1889 11.9589 6.1889 12C6.1889 12.0412 6.18934 12.0822 6.1902 12.1231C6.20984 13.0513 5.80944 14.0961 4.84713 14.6467C4.58502 14.7967 4.49531 15.1315 4.64732 15.3924L5.35177 16.6016C5.50856 16.8708 5.85307 16.9631 6.12342 16.8084C7.08416 16.2587 8.18616 16.4351 8.98162 16.9146C9.05623 16.9596 9.13194 17.003 9.20869 17.0447C10.0242 17.4875 10.7296 18.3529 10.7296 19.459C10.7296 19.7578 10.9719 20 11.2707 20H12.7293C13.0281 20 13.2704 19.7578 13.2704 19.459C13.2704 18.3529 13.9759 17.4875 14.7913 17.0447C14.8681 17.003 14.9438 16.9596 15.0184 16.9146C15.8139 16.4351 16.9159 16.2587 17.8766 16.8084C18.147 16.9631 18.4915 16.8708 18.6483 16.6016L19.3527 15.3924C19.5047 15.1315 19.415 14.7967 19.1529 14.6467C18.1906 14.0961 17.7902 13.0513 17.8098 12.1231C17.8107 12.0822 17.8111 12.0412 17.8111 12C17.8111 11.9589 17.8107 11.9178 17.8098 11.8769C17.7902 10.9487 18.1906 9.9039 19.1529 9.35329C19.415 9.20331 19.5047 8.86848 19.3527 8.60753L18.6483 7.39839C18.4915 7.12924 18.147 7.03693 17.8766 7.19162C16.9159 7.74134 15.8139 7.5649 15.0184 7.08536C14.9438 7.04039 14.8681 6.99703 14.7913 6.95535C13.9759 6.51246 13.2704 5.64708 13.2704 4.54104C13.2704 4.24223 13.0281 4 12.7293 4H11.2707Z" fill="black"/>
</svg>
