<svg width="83" height="67" viewBox="0 0 83 67" fill="none" xmlns="http://www.w3.org/2000/svg">
<path d="M42.1243 14.069C42.7686 12.3278 45.2314 12.3278 45.8757 14.069L51.5135 29.3049C51.7161 29.8523 52.1477 30.2839 52.6951 30.4865L67.931 36.1243C69.6722 36.7686 69.6722 39.2314 67.931 39.8757L52.6951 45.5135C52.1477 45.7161 51.7161 46.1477 51.5135 46.6951L45.8757 61.931C45.2314 63.6722 42.7686 63.6722 42.1243 61.931L36.4865 46.6951C36.2839 46.1477 35.8523 45.7161 35.3049 45.5135L20.069 39.8757C18.3278 39.2314 18.3278 36.7686 20.069 36.1243L35.3049 30.4865C35.8523 30.2839 36.2839 29.8523 36.4865 29.3049L42.1243 14.069Z" fill="white"/>
<path d="M66.6243 5.06901C67.2686 3.32777 69.7314 3.32777 70.3757 5.06901L72.0972 9.7212C72.2997 10.2686 72.7314 10.7003 73.2788 10.9028L77.931 12.6243C79.6722 13.2686 79.6722 15.7314 77.931 16.3757L73.2788 18.0972C72.7314 18.2997 72.2997 18.7314 72.0972 19.2788L70.3757 23.931C69.7314 25.6722 67.2686 25.6722 66.6243 23.931L64.9028 19.2788C64.7003 18.7314 64.2686 18.2997 63.7212 18.0972L59.069 16.3757C57.3278 15.7314 57.3278 13.2686 59.069 12.6243L63.7212 10.9028C64.2686 10.7003 64.7003 10.2686 64.9028 9.7212L66.6243 5.06901Z" fill="white"/>
</svg>
